<?xml version="1.0" standalone="no"?>
<!DOCTYPE svg PUBLIC "-//W3C//DTD SVG 20010904//EN"
 "http://www.w3.org/TR/2001/REC-SVG-20010904/DTD/svg10.dtd">
<svg version="1.0" xmlns="http://www.w3.org/2000/svg"
 width="1000.000000pt" height="300.000000pt" viewBox="0 0 1000.000000 300.000000"
 preserveAspectRatio="xMidYMid meet">

<g transform="translate(0.000000,300.000000) scale(0.100000,-0.100000)"
fill="#000000" stroke="none">
<path d="M1460 1595 l0 -465 154 0 155 0 3 193 c3 181 4 194 26 224 35 50 103
77 192 78 87 0 131 -20 167 -75 22 -31 23 -42 23 -226 l0 -194 155 0 155 0 0
242 c0 275 -5 296 -83 363 -70 60 -134 79 -272 79 -143 1 -216 -17 -306 -75
l-59 -39 0 180 0 180 -155 0 -155 0 0 -465z"/>
<path d="M880 1905 l0 -95 -70 0 -70 0 0 -95 0 -95 70 0 70 0 0 -178 c0 -165
2 -181 23 -222 38 -75 64 -84 260 -88 l167 -4 0 96 0 96 -59 0 c-88 0 -91 5
-91 166 l0 134 75 0 76 0 -3 93 -3 92 -72 3 -73 3 0 94 0 95 -150 0 -150 0 0
-95z"/>
<path d="M5630 1763 l0 -81 1098 -6 c603 -3 1113 -10 1132 -14 38 -8 52 -39
28 -59 -9 -8 -341 -16 -1013 -27 -1071 -17 -1091 -18 -1166 -69 -54 -37 -73
-71 -77 -140 -8 -131 73 -214 231 -236 68 -10 1559 5 1799 17 141 8 148 9 197
40 l52 32 9 -24 c18 -49 43 -56 193 -56 l138 0 -3 93 -3 92 -32 3 -31 3 -4
177 c-3 201 -12 228 -86 270 -91 51 -85 50 -1314 58 l-1148 7 0 -80z m2270
-333 c0 -20 -11 -42 -33 -66 -32 -36 -36 -37 -129 -45 -137 -11 -872 -28
-1365 -31 l-421 -3 -26 24 c-34 32 -33 66 1 88 21 14 53 19 148 21 161 5 1627
39 1738 41 l87 1 0 -30z"/>
<path d="M2931 1820 c-157 -33 -247 -90 -299 -190 -33 -63 -34 -68 -30 -160 3
-73 9 -105 27 -138 47 -91 140 -154 278 -189 98 -25 448 -25 547 0 91 23 179
71 221 120 60 70 85 184 65 291 -23 124 -94 196 -239 244 -71 24 -91 26 -301
28 -124 2 -245 -1 -269 -6z m376 -185 c35 -11 62 -27 87 -55 33 -37 36 -45 36
-101 0 -59 -2 -63 -43 -104 -55 -56 -102 -68 -237 -63 -89 3 -112 7 -150 28
-113 63 -119 210 -11 274 18 10 47 22 64 26 57 14 201 11 254 -5z"/>
<path d="M4405 1816 c-5 -3 -35 -11 -65 -20 -31 -8 -84 -33 -117 -55 l-62 -40
-3 52 -3 52 -150 0 -150 0 0 -335 0 -335 153 -3 152 -3 0 178 c0 207 10 243
79 288 80 54 224 41 268 -23 15 -23 19 -55 23 -232 l5 -205 152 -3 151 -3 4
188 c3 178 4 190 27 227 36 57 113 90 196 84 65 -6 107 -26 128 -62 8 -14 14
-93 17 -226 l5 -205 155 0 155 0 0 240 -1 240 -26 51 c-55 104 -158 154 -317
154 -134 0 -265 -41 -350 -108 l-24 -19 -29 33 c-16 18 -54 45 -85 61 -49 23
-70 27 -167 30 -61 1 -115 1 -121 -1z"/>
<path d="M8340 1710 l0 -90 243 -2 242 -3 -242 -160 -243 -160 0 -82 0 -83
460 0 460 0 0 95 0 95 -251 2 -252 3 252 159 251 159 0 78 0 79 -460 0 -460 0
0 -90z"/>
</g>
</svg>
