<svg width="101" height="100" viewBox="0 0 101 100" fill="none" xmlns="http://www.w3.org/2000/svg">
<g clip-path="url(#clip0_59_6199)">
<path fill-rule="evenodd" clip-rule="evenodd" d="M50.6665 1.47783C23.8685 1.47783 2.14434 23.2019 2.14434 50C2.14434 76.798 23.8685 98.5222 50.6665 98.5222C77.4646 98.5222 99.1887 76.798 99.1887 50C99.1887 23.2019 77.4646 1.47783 50.6665 1.47783ZM0.666504 50C0.666504 22.3858 23.0523 0 50.6665 0C78.2807 0 100.667 22.3858 100.667 50C100.667 77.6142 78.2807 100 50.6665 100C23.0523 100 0.666504 77.6142 0.666504 50Z" fill="#CB5CFF"/>
<path fill-rule="evenodd" clip-rule="evenodd" d="M50.6663 8.16265C27.5602 8.16265 8.82891 26.8939 8.82891 50.0001C8.82891 73.1063 27.5602 91.8375 50.6663 91.8375C73.7725 91.8375 92.5038 73.1063 92.5038 50.0001C92.5038 26.8939 73.7725 8.16265 50.6663 8.16265ZM7.35107 50.0001C7.35107 26.0777 26.744 6.68481 50.6663 6.68481C74.5887 6.68481 93.9816 26.0777 93.9816 50.0001C93.9816 73.9224 74.5887 93.3153 50.6663 93.3153C26.744 93.3153 7.35107 73.9224 7.35107 50.0001Z" fill="#CB5CFF"/>
<path fill-rule="evenodd" clip-rule="evenodd" d="M50.6667 14.8472C31.2524 14.8472 15.514 30.5856 15.514 49.9999C15.514 69.4142 31.2524 85.1526 50.6667 85.1526C70.081 85.1526 85.8194 69.4142 85.8194 49.9999C85.8194 30.5856 70.081 14.8472 50.6667 14.8472ZM14.0361 49.9999C14.0361 29.7694 30.4362 13.3694 50.6667 13.3694C70.8972 13.3694 87.2972 29.7694 87.2972 49.9999C87.2972 70.2304 70.8972 86.6305 50.6667 86.6305C30.4362 86.6305 14.0361 70.2304 14.0361 49.9999Z" fill="#CB5CFF"/>
<path fill-rule="evenodd" clip-rule="evenodd" d="M50.6665 21.532C34.9441 21.532 22.1985 34.2776 22.1985 50C22.1985 65.7224 34.9441 78.468 50.6665 78.468C66.3889 78.468 79.1345 65.7224 79.1345 50C79.1345 34.2776 66.3889 21.532 50.6665 21.532ZM20.7207 50C20.7207 33.4614 34.1279 20.0542 50.6665 20.0542C67.2051 20.0542 80.6123 33.4614 80.6123 50C80.6123 66.5386 67.2051 79.9458 50.6665 79.9458C34.1279 79.9458 20.7207 66.5386 20.7207 50Z" fill="#CB5CFF"/>
<path fill-rule="evenodd" clip-rule="evenodd" d="M50.6663 28.2217C38.6385 28.2217 28.888 37.9722 28.888 50.0001C28.888 62.0279 38.6385 71.7784 50.6663 71.7784C62.6942 71.7784 72.4446 62.0279 72.4446 50.0001C72.4446 37.9722 62.6942 28.2217 50.6663 28.2217ZM27.4102 50.0001C27.4102 37.156 37.8223 26.7439 50.6663 26.7439C63.5103 26.7439 73.9225 37.156 73.9225 50.0001C73.9225 62.8441 63.5103 73.2562 50.6663 73.2562C37.8223 73.2562 27.4102 62.8441 27.4102 50.0001Z" fill="#CB5CFF"/>
<path fill-rule="evenodd" clip-rule="evenodd" d="M50.6666 34.9063C42.3307 34.9063 35.573 41.6639 35.573 49.9999C35.573 58.3359 42.3307 65.0935 50.6666 65.0935C59.0026 65.0935 65.7602 58.3359 65.7602 49.9999C65.7602 41.6639 59.0026 34.9063 50.6666 34.9063ZM34.0952 49.9999C34.0952 40.8477 41.5145 33.4285 50.6666 33.4285C59.8188 33.4285 67.2381 40.8477 67.2381 49.9999C67.2381 59.152 59.8188 66.5713 50.6666 66.5713C41.5145 66.5713 34.0952 59.152 34.0952 49.9999Z" fill="#CB5CFF"/>
<path fill-rule="evenodd" clip-rule="evenodd" d="M50.6665 41.5911C46.0224 41.5911 42.2576 45.3559 42.2576 50C42.2576 54.6441 46.0224 58.4088 50.6665 58.4088C55.3106 58.4088 59.0754 54.6441 59.0754 50C59.0754 45.3559 55.3106 41.5911 50.6665 41.5911ZM40.7798 50C40.7798 44.5397 45.2062 40.1133 50.6665 40.1133C56.1268 40.1133 60.5532 44.5397 60.5532 50C60.5532 55.4603 56.1268 59.8867 50.6665 59.8867C45.2062 59.8867 40.7798 55.4603 40.7798 50Z" fill="#CB5CFF"/>
<path fill-rule="evenodd" clip-rule="evenodd" d="M50.6663 48.2759C49.7141 48.2759 48.9422 49.0479 48.9422 50.0001C48.9422 50.9523 49.7141 51.7242 50.6663 51.7242C51.6185 51.7242 52.3905 50.9523 52.3905 50.0001C52.3905 49.0479 51.6185 48.2759 50.6663 48.2759ZM47.4644 50.0001C47.4644 48.2317 48.8979 46.7981 50.6663 46.7981C52.4347 46.7981 53.8683 48.2317 53.8683 50.0001C53.8683 51.7685 52.4347 53.202 50.6663 53.202C48.8979 53.202 47.4644 51.7685 47.4644 50.0001Z" fill="#CB5CFF"/>
</g>
<defs>
<clipPath id="clip0_59_6199">
<rect width="100" height="100" fill="white" transform="translate(0.666504)"/>
</clipPath>
</defs>
</svg>
