<svg width="83" height="100" viewBox="0 0 83 100" fill="none" xmlns="http://www.w3.org/2000/svg">
<path d="M80.758 72.6009L37.9686 97.3051V92.0102L76.1723 69.9535V28.5364L74.6155 29.4355V69.0551L37.9686 90.2128V84.918L70.0305 66.4069V32.0821L68.4737 32.9812V65.5086L37.9686 83.1206V77.8257L63.8879 62.8612V35.6287L62.3311 36.5277V61.9629L37.9686 76.0283V70.7334L57.7454 59.3155V39.1752L56.1885 40.0743V58.4171L37.9686 68.9368V63.642L51.6043 55.7697V42.7217L50.0475 43.6208V54.8714L37.9686 61.8453V57.0596L45.9024 52.4785V46.0137L44.3455 46.9128V51.5802L37.9686 55.2622V47.8982L82.5087 22.1829L80.9519 21.2838L36.4118 46.9992V56.1605L31.826 58.8079V44.3517L76.3669 18.6364L74.8101 17.7373L30.27 43.4526V59.7062L25.6842 62.3537V40.8044L70.2251 15.0891L68.6683 14.19L24.1282 39.9053V63.252L19.5424 65.8994V37.2579L64.0833 11.5425L62.5265 10.6435L17.9856 36.3588V66.7977L13.3999 69.4451V33.7114L57.9408 7.99602L56.3839 7.09693L11.843 32.8131V70.3442L7.25807 72.9909V30.1656L51.7982 4.45028L50.2413 3.55119L5.70121 29.2666V73.8892L1.55686 76.2821V26.3646L45.6564 0.903758L44.1081 0L0 25.4663V78.9793L5.70121 75.6874V82.2705L11.843 78.7248V85.817L17.9856 82.2705V89.3628L24.1282 85.8163V92.9085L30.2708 89.362V96.4543L36.4133 92.9077V100L82.3164 73.4976V24.9899L80.7596 25.889V72.6009H80.758ZM36.4118 84.0196L31.826 86.6671V81.3722L36.4118 78.7248V84.0196ZM36.4118 76.9266L31.826 79.574V74.2792L36.4118 71.6317V76.9266ZM25.6842 70.7334L30.27 68.086V73.3809L25.6842 76.0283V70.7334ZM24.1274 76.9266L19.5417 79.574V74.2792L24.1274 71.6317V76.9266ZM30.2692 75.1783V80.4731L25.6835 83.1206V77.8257L30.2692 75.1783ZM36.4118 69.8344L31.826 72.4818V67.1869L36.4118 64.5395V69.8344ZM36.4118 57.9563V62.7421L31.826 65.3895V60.6038L36.4118 57.9563ZM30.2692 61.5028V66.2886L25.6835 68.936V64.1503L30.2692 61.5028ZM24.1274 65.0494V69.8351L19.5417 72.4826V67.6968L24.1274 65.0494ZM17.9848 68.5951V73.3809L13.3991 76.0283V71.2425L17.9848 68.5951ZM7.25807 79.5748V74.789L11.843 72.1424V76.9282L7.25807 79.5748ZM13.3991 83.1206V77.8257L17.9848 75.1783V80.4731L13.3991 83.1206ZM19.5417 86.6671V81.3722L24.1274 78.7248V84.0196L19.5417 86.6671ZM25.6842 90.2128V84.918L30.27 82.2705V87.5654L25.6842 90.2128ZM31.826 93.7593V88.4645L36.4118 85.817V91.1119L31.826 93.7593Z" fill="#FCFF5C"/>
</svg>
