<svg width="116" height="100" viewBox="0 0 116 100" fill="none" xmlns="http://www.w3.org/2000/svg">
<path d="M3.10378 98.208L57.7353 3.58404L113.401 100H115.471L57.7353 0L0 100H83.2142L57.6654 55.7488L50.7401 67.7437H62.5208L64.5897 71.3277H45.3641L57.6654 50.0215L86.5205 100H88.5902L57.6654 46.4375L42.2612 73.1197H65.6255L67.6944 76.7038H37.0231L57.7353 40.8302L91.8965 100H93.9663L57.7353 37.2462L33.9193 78.4958H68.7293L70.7982 82.0798H28.5433L57.7353 31.518L97.2726 100H99.3423L57.7353 27.934L25.4395 83.8718H71.8331L73.9019 87.4559H20.0634L57.7353 22.2067L102.649 100H104.718L57.7353 18.6227L16.9597 89.2479H74.9368L77.0057 92.8319H11.5836L57.7353 12.8954L108.025 100H110.094L57.7353 9.31133L8.47983 94.6239H78.0406L80.1095 98.208H3.10378ZM53.8448 65.9517L57.6663 59.3328L61.4877 65.9517H53.8448Z" fill="#5CB1FF"/>
</svg>
