<svg width="100" height="100" viewBox="0 0 100 100" fill="none" xmlns="http://www.w3.org/2000/svg">
<mask id="mask0_361_6714" style="mask-type:luminance" maskUnits="userSpaceOnUse" x="0" y="0" width="100" height="100">
<path d="M100 0H0V100H100V0Z" fill="white"/>
</mask>
<g mask="url(#mask0_361_6714)">
<path fill-rule="evenodd" clip-rule="evenodd" d="M50 1.47783C23.202 1.47783 1.47784 23.2019 1.47784 50C1.47784 76.798 23.202 98.5222 50 98.5222C76.7981 98.5222 98.5222 76.798 98.5222 50C98.5222 23.2019 76.7981 1.47783 50 1.47783ZM0 50C0 22.3858 22.3858 0 50 0C77.6142 0 100 22.3858 100 50C100 77.6142 77.6142 100 50 100C22.3858 100 0 77.6142 0 50Z" fill="#FF5C7D"/>
<path fill-rule="evenodd" clip-rule="evenodd" d="M49.9998 8.16265C26.8937 8.16265 8.16241 26.8939 8.16241 50.0001C8.16241 73.1063 26.8937 91.8375 49.9998 91.8375C73.106 91.8375 91.8373 73.1063 91.8373 50.0001C91.8373 26.8939 73.106 8.16265 49.9998 8.16265ZM6.68457 50.0001C6.68457 26.0777 26.0775 6.68481 49.9998 6.68481C73.9222 6.68481 93.3151 26.0777 93.3151 50.0001C93.3151 73.9224 73.9222 93.3153 49.9998 93.3153C26.0775 93.3153 6.68457 73.9224 6.68457 50.0001Z" fill="#FF5C7D"/>
<path fill-rule="evenodd" clip-rule="evenodd" d="M49.9997 14.8472C30.5854 14.8472 14.847 30.5856 14.847 49.9999C14.847 69.4142 30.5854 85.1526 49.9997 85.1526C69.414 85.1526 85.1524 69.4142 85.1524 49.9999C85.1524 30.5856 69.414 14.8472 49.9997 14.8472ZM13.3691 49.9999C13.3691 29.7694 29.7692 13.3694 49.9997 13.3694C70.2302 13.3694 86.6302 29.7694 86.6302 49.9999C86.6302 70.2304 70.2302 86.6305 49.9997 86.6305C29.7692 86.6305 13.3691 70.2304 13.3691 49.9999Z" fill="#FF5C7D"/>
<path fill-rule="evenodd" clip-rule="evenodd" d="M49.9995 21.532C34.2771 21.532 21.5315 34.2776 21.5315 50C21.5315 65.7224 34.2771 78.468 49.9995 78.468C65.7219 78.468 78.4675 65.7224 78.4675 50C78.4675 34.2776 65.7219 21.532 49.9995 21.532ZM20.0537 50C20.0537 33.4614 33.4609 20.0542 49.9995 20.0542C66.5381 20.0542 79.9453 33.4614 79.9453 50C79.9453 66.5386 66.5381 79.9458 49.9995 79.9458C33.4609 79.9458 20.0537 66.5386 20.0537 50Z" fill="#FF5C7D"/>
<path fill-rule="evenodd" clip-rule="evenodd" d="M50.0002 28.2217C37.9724 28.2217 28.2219 37.9722 28.2219 50.0001C28.2219 62.0279 37.9724 71.7784 50.0002 71.7784C62.0281 71.7784 71.7785 62.0279 71.7785 50.0001C71.7785 37.9722 62.0281 28.2217 50.0002 28.2217ZM26.7441 50.0001C26.7441 37.156 37.1562 26.7439 50.0002 26.7439C62.8442 26.7439 73.2564 37.156 73.2564 50.0001C73.2564 62.8441 62.8442 73.2562 50.0002 73.2562C37.1562 73.2562 26.7441 62.8441 26.7441 50.0001Z" fill="#FF5C7D"/>
<path fill-rule="evenodd" clip-rule="evenodd" d="M50.0001 34.9063C41.6642 34.9063 34.9065 41.6639 34.9065 49.9999C34.9065 58.3359 41.6642 65.0935 50.0001 65.0935C58.3361 65.0935 65.0937 58.3359 65.0937 49.9999C65.0937 41.6639 58.3361 34.9063 50.0001 34.9063ZM33.4287 49.9999C33.4287 40.8477 40.848 33.4285 50.0001 33.4285C59.1523 33.4285 66.5716 40.8477 66.5716 49.9999C66.5716 59.152 59.1523 66.5713 50.0001 66.5713C40.848 66.5713 33.4287 59.152 33.4287 49.9999Z" fill="#FF5C7D"/>
<path fill-rule="evenodd" clip-rule="evenodd" d="M50 41.5911C45.3559 41.5911 41.5911 45.3559 41.5911 50C41.5911 54.6441 45.3559 58.4088 50 58.4088C54.6441 58.4088 58.4089 54.6441 58.4089 50C58.4089 45.3559 54.6441 41.5911 50 41.5911ZM40.1133 50C40.1133 44.5397 44.5397 40.1133 50 40.1133C55.4603 40.1133 59.8867 44.5397 59.8867 50C59.8867 55.4603 55.4603 59.8867 50 59.8867C44.5397 59.8867 40.1133 55.4603 40.1133 50Z" fill="#FF5C7D"/>
<path fill-rule="evenodd" clip-rule="evenodd" d="M49.9998 48.2759C49.0476 48.2759 48.2757 49.0479 48.2757 50.0001C48.2757 50.9523 49.0476 51.7242 49.9998 51.7242C50.952 51.7242 51.7239 50.9523 51.7239 50.0001C51.7239 49.0479 50.952 48.2759 49.9998 48.2759ZM46.7979 50.0001C46.7979 48.2317 48.2314 46.7981 49.9998 46.7981C51.7682 46.7981 53.2018 48.2317 53.2018 50.0001C53.2018 51.7685 51.7682 53.202 49.9998 53.202C48.2314 53.202 46.7979 51.7685 46.7979 50.0001Z" fill="#FF5C7D"/>
</g>
</svg>
