<svg viewBox="0 0 67 100" fill="none" xmlns="http://www.w3.org/2000/svg">
<path opacity="0.4" fill-rule="evenodd" clip-rule="evenodd" d="M58.6028 77.03C55.3889 79.3971 46.1673 86.9735 42.9143 89.3098C41.986 89.9762 40.5219 91.2429 39.0032 91.381C48.386 60.5501 39.485 22.7225 9.94815 0.936691C9.25025 0.421935 8.47732 0.535126 8.18377 1.22059C8.00614 1.63536 7.79629 2.56666 12.3319 6.49332C36.328 28.3166 46.1173 62.3731 35.811 90.1611C34.6999 89.1136 34.0294 87.6436 33.4828 86.7176C29.6835 80.2935 26.0594 73.8125 22.3489 67.362C21.389 65.6942 20.6957 68.2125 20.5268 68.7962C20.0574 70.417 20.398 72.4003 21.3453 74.0466C23.7071 78.1529 25.7582 82.0352 28.12 86.1415C30.0134 89.433 31.281 92.5199 33.9899 95.5348C36.084 97.8652 36.6071 97.8267 39.7748 96.3309C44.1028 94.2865 48.0062 91.0521 51.6469 88.3735C53.0822 87.3168 60.0543 81.583 60.0001 80.166C59.9866 79.7964 59.6291 76.2748 58.6028 77.03Z" fill="black"/>
</svg>
