<svg viewBox="0 0 65 101" fill="none" xmlns="http://www.w3.org/2000/svg">
<path opacity="0.3" fill-rule="evenodd" clip-rule="evenodd" d="M4.15641 23.4205C6.80786 20.437 9.41843 17.4312 12.1146 14.4696C12.884 13.6248 14.0529 12.0814 15.5097 11.6305C12.7419 43.7385 29.3133 78.8889 62.7342 94.0575C63.5238 94.4159 64.2564 94.1445 64.401 93.413C64.4885 92.9703 64.5001 92.0158 59.2473 89.1179C31.2382 72.7606 14.5821 41.4836 18.8857 12.16C20.1903 12.9537 21.1518 14.2521 21.8789 15.0443C26.9309 20.5381 24.5293 18.128 29.4999 23.6661C30.7856 25.0979 30.9401 22.4904 30.984 21.8844C31.1061 20.2014 30.3607 18.3322 29.0918 16.9189C29.0918 16.9189 22.8263 8.91094 19.5497 6.5252C17.0169 4.68108 16.5133 4.82748 13.7258 6.9492C9.91737 9.84878 6.77176 13.824 3.76757 17.2011C2.58331 18.5331 1.78995 19.2688 2.13759 20.6436C2.22766 21.0023 3.30947 24.3727 4.15641 23.4205Z" fill="black"/>
</svg>
