<svg version="1.1" xmlns="http://www.w3.org/2000/svg" xmlns:xlink="http://www.w3.org/1999/xlink" width="72px" height="72px" viewBox="0,0,256,256"><g fill="#ffffff" fill-rule="nonzero" stroke="none" stroke-width="1" stroke-linecap="butt" stroke-linejoin="miter" stroke-miterlimit="10" stroke-dasharray="" stroke-dashoffset="0" font-family="none" font-weight="none" font-size="none" text-anchor="none" style="mix-blend-mode: normal"><g transform="translate(-4.97778,-3.2) scale(3.55556,3.55556)"><path d="M56.631,38.582c0.621,0.454 1.176,0.992 1.648,1.598c1.077,1.384 1.721,3.12 1.721,5.006c0,1.407 0,4.221 0,5.628c0,4.514 -3.673,8.186 -8.187,8.186c-3.9,0 -15.601,0 -15.601,0c2.184,-2.183 12.733,-12.622 20.419,-20.418zM54.253,23.726c3.192,3.192 3.191,8.384 0,11.577c-5.686,5.69 -10.998,11.101 -15.253,15.253c-0.001,0.001 -0.022,-31.058 -0.021,-31.059c0.483,-0.441 1.007,-0.814 1.558,-1.118c3.109,-1.718 7.102,-1.267 9.736,1.368c0.995,0.994 2.985,2.984 3.98,3.979zM26.813,13c4.514,0 8.187,3.672 8.187,8.186c0,7.407 0,22.221 0,29.628c0,4.514 -3.673,8.186 -8.187,8.186c-1.407,0 -4.22,0 -5.627,0c-4.513,0 -8.186,-3.672 -8.186,-8.186c0,-7.407 0,-22.221 0,-29.628c0,-4.514 3.673,-8.186 8.187,-8.186c1.406,0 4.22,0 5.626,0zM24,49c1.104,0 2,-0.895 2,-2c0,-1.105 -0.896,-2 -2,-2c-1.104,0 -2,0.895 -2,2c0,1.105 0.896,2 2,2z"></path></g></g></svg>