<svg version="1.1" xmlns="http://www.w3.org/2000/svg" xmlns:xlink="http://www.w3.org/1999/xlink" width="72px" height="72px" viewBox="0,0,256,256"><g fill="#ffffff" fill-rule="nonzero" stroke="none" stroke-width="1" stroke-linecap="butt" stroke-linejoin="miter" stroke-miterlimit="10" stroke-dasharray="" stroke-dashoffset="0" font-family="none" font-weight="none" font-size="none" text-anchor="none" style="mix-blend-mode: normal"><g transform="translate(-21.37271,6.22267) scale(3.55556,3.55556)"><path d="M64.13281,5.70508c-0.559,0.03925 -1.12722,0.29323 -1.57422,0.74023l-1.87305,1.85156l4.9707,4.99609l1.83984,-1.88477c0.919,-0.967 0.99026,-2.29684 0.07227,-3.21484l-1.91602,-1.93945c-0.411,-0.411 -0.96053,-0.58808 -1.51953,-0.54883zM58.82031,9.98633l-19.74219,19.76953l-1.4668,5.49609c-0.242,0.555 0.38541,1.1838 0.94141,0.9668l5.66406,-1.37109l19.74414,-19.74414zM20,11c-3.314,0 -6,2.686 -6,6v38c0,3.314 2.686,6 6,6h32c3.314,0 6,-2.686 6,-6v-28.29883l-11.75977,11.71094l-6.74609,1.66211c-0.638,0.176 -1.24284,0.17663 -1.83984,0.14063c-1.65,-0.099 -2.97814,-1.45427 -3.61914,-2.57227c-0.573,-0.998 -0.57355,-2.34028 -0.31055,-3.48828l1.76563,-6.48242l6.66797,-6.67187h-0.1582c-0.552,0 -1,-0.448 -1,-1v-2c0,-0.552 0.448,-1 1,-1h2c0.552,0 1,0.448 1,1v0.1543l7.14844,-7.1543zM21,17h2c0.552,0 1,0.448 1,1v2c0,0.552 -0.448,1 -1,1h-2c-0.552,0 -1,-0.448 -1,-1v-2c0,-0.552 0.448,-1 1,-1zM28,17h2c0.552,0 1,0.448 1,1v2c0,0.552 -0.448,1 -1,1h-2c-0.552,0 -1,-0.448 -1,-1v-2c0,-0.552 0.448,-1 1,-1zM35,17h2c0.552,0 1,0.448 1,1v2c0,0.552 -0.448,1 -1,1h-2c-0.552,0 -1,-0.448 -1,-1v-2c0,-0.552 0.448,-1 1,-1zM21,51h2c0.552,0 1,0.448 1,1v2c0,0.552 -0.448,1 -1,1h-2c-0.552,0 -1,-0.448 -1,-1v-2c0,-0.552 0.448,-1 1,-1zM28,51h2c0.552,0 1,0.448 1,1v2c0,0.552 -0.448,1 -1,1h-2c-0.552,0 -1,-0.448 -1,-1v-2c0,-0.552 0.448,-1 1,-1zM35,51h2c0.552,0 1,0.448 1,1v2c0,0.552 -0.448,1 -1,1h-2c-0.552,0 -1,-0.448 -1,-1v-2c0,-0.552 0.448,-1 1,-1zM42,51h2c0.552,0 1,0.448 1,1v2c0,0.552 -0.448,1 -1,1h-2c-0.552,0 -1,-0.448 -1,-1v-2c0,-0.552 0.448,-1 1,-1zM49,51h2c0.552,0 1,0.448 1,1v2c0,0.552 -0.448,1 -1,1h-2c-0.552,0 -1,-0.448 -1,-1v-2c0,-0.552 0.448,-1 1,-1z"></path></g></g></svg>