<svg version="1.1" xmlns="http://www.w3.org/2000/svg" xmlns:xlink="http://www.w3.org/1999/xlink" width="48px" height="48px" viewBox="0,0,256,256"><g fill="#FFF" fill-rule="nonzero" stroke="none" stroke-width="1" stroke-linecap="butt" stroke-linejoin="miter" stroke-miterlimit="10" stroke-dasharray="" stroke-dashoffset="0" font-family="none" font-weight="none" font-size="none" text-anchor="none" style="mix-blend-mode: normal"><g transform="translate(0,-3.2) scale(5.33333,5.33333)"><path d="M34.25,26c-1.402,0 -2.774,0.123 -4.113,0.348c1.834,4.728 3.224,9.672 4.127,14.785c4.767,-2.867 8.252,-7.648 9.356,-13.286c-2.892,-1.187 -6.055,-1.847 -9.37,-1.847zM26.023,24.245c-0.535,-1.214 -1.103,-2.411 -1.699,-3.591c-4.159,1.517 -8.646,2.346 -13.324,2.346c-2.362,0 -4.671,-0.223 -6.918,-0.627c-0.043,0.538 -0.082,1.078 -0.082,1.627c0,5.405 2.164,10.308 5.661,13.911c3.396,-6.478 9.271,-11.46 16.362,-13.666zM27.105,19.505c0.659,1.315 1.289,2.647 1.876,4.003c1.707,-0.33 3.467,-0.508 5.269,-0.508c3.416,0 6.687,0.624 9.712,1.758c0.009,-0.254 0.038,-0.502 0.038,-0.758c0,-4.98 -1.842,-9.531 -4.864,-13.035c-3.412,3.559 -7.488,6.471 -12.031,8.54zM11.985,39.95c3.35,2.53 7.503,4.05 12.015,4.05c2.641,0 5.159,-0.527 7.469,-1.461c-0.885,-5.378 -2.338,-10.564 -4.286,-15.505c-6.682,1.994 -12.189,6.738 -15.198,12.916zM37.015,8.845c-3.502,-3.011 -8.045,-4.845 -13.015,-4.845c-2.181,0 -4.276,0.363 -6.243,1.011c2.99,3.687 5.662,7.641 7.963,11.829c4.271,-1.922 8.1,-4.651 11.295,-7.995zM4.552,19.41c2.094,0.381 4.246,0.59 6.448,0.59c4.173,0 8.179,-0.722 11.909,-2.033c-2.316,-4.167 -5.001,-8.101 -8.026,-11.746c-5.134,2.643 -8.972,7.437 -10.331,13.189z"></path></g></g></svg>