<svg width="20" height="20" viewBox="0 0 20 20" fill="none" xmlns="http://www.w3.org/2000/svg">
<path d="M18.6975 6.39267C18.6549 5.46108 18.5073 4.82525 18.2909 4.26875C18.0675 3.69358 17.7683 3.20533 17.2818 2.71883C16.7953 2.23233 16.3076 1.93308 15.7318 1.70967C15.1753 1.49325 14.5389 1.34567 13.6079 1.30308C12.6746 1.25992 12.3765 1.25 10 1.25C7.6235 1.25 7.32542 1.25992 6.39267 1.3025C5.46108 1.34508 4.82525 1.49267 4.26875 1.70908C3.69358 1.9325 3.20533 2.23175 2.71883 2.71825C2.23233 3.20475 1.93308 3.69242 1.70967 4.26817C1.49325 4.82467 1.34567 5.46108 1.30308 6.39208C1.25992 7.32542 1.25 7.6235 1.25 10C1.25 12.3765 1.25992 12.6746 1.3025 13.6073C1.34508 14.5389 1.49267 15.1747 1.70908 15.7312C1.9325 16.3064 2.23175 16.7947 2.71825 17.2812C3.20475 17.7677 3.69242 18.0669 4.26817 18.2903C4.82467 18.5068 5.46108 18.6543 6.39208 18.6969C7.32542 18.7401 7.6235 18.75 10 18.75C12.3765 18.75 12.6746 18.7401 13.6073 18.6975C14.5389 18.6549 15.1747 18.5073 15.7312 18.2909C16.3064 18.0675 16.7947 17.7683 17.2812 17.2818C17.7677 16.7953 18.0669 16.3076 18.2903 15.7318C18.5068 15.1753 18.6543 14.5389 18.6969 13.6079C18.7401 12.6746 18.75 12.3765 18.75 10C18.75 7.6235 18.7401 7.32542 18.6975 6.39267ZM17.1225 13.5356C17.0834 14.3884 16.9411 14.8522 16.8215 15.1602C16.6628 15.5685 16.4732 15.8602 16.167 16.1664C15.8607 16.4727 15.5691 16.6622 15.1607 16.8209C14.8522 16.9405 14.389 17.0834 13.5362 17.1219C12.6139 17.1639 12.3368 17.1727 10.0006 17.1727C7.66433 17.1727 7.38725 17.1639 6.465 17.1219C5.61217 17.0828 5.14842 16.9405 4.84042 16.8209C4.43208 16.6622 4.14042 16.4727 3.83417 16.1664C3.52792 15.8602 3.33833 15.5685 3.17967 15.1602C3.06008 14.8516 2.91717 14.3884 2.87867 13.5356C2.83667 12.6128 2.82792 12.3362 2.82792 10C2.82792 7.66375 2.83667 7.38667 2.87867 6.46442C2.91775 5.61158 3.06008 5.14783 3.17967 4.83983C3.33833 4.4315 3.52792 4.13983 3.83417 3.83358C4.14042 3.52733 4.43208 3.33775 4.84042 3.17908C5.149 3.0595 5.61217 2.91658 6.465 2.87808C7.38783 2.83608 7.66433 2.82733 10.0006 2.82733C12.3368 2.82733 12.6139 2.83608 13.5362 2.87808C14.389 2.91717 14.8527 3.0595 15.1607 3.17908C15.5691 3.33775 15.8607 3.52733 16.167 3.83358C16.4732 4.13983 16.6628 4.4315 16.8215 4.83983C16.9411 5.14842 17.084 5.61158 17.1225 6.46442C17.1645 7.38725 17.1732 7.66375 17.1732 10C17.1732 12.3362 17.1645 12.6133 17.1225 13.5356ZM10 5.50658C7.5185 5.50658 5.50658 7.5185 5.50658 10C5.50658 12.4815 7.5185 14.4934 10 14.4934C12.4815 14.4934 14.4934 12.4815 14.4934 10C14.4934 7.5185 12.4815 5.50658 10 5.50658ZM10 12.9167C8.38942 12.9167 7.08333 11.6106 7.08333 10C7.08333 8.38942 8.38942 7.08333 10 7.08333C11.6106 7.08333 12.9167 8.38942 12.9167 10C12.9167 11.6106 11.6106 12.9167 10 12.9167ZM14.6707 4.27925C14.0909 4.27925 13.6208 4.74942 13.6208 5.32925C13.6208 5.90908 14.0909 6.37925 14.6707 6.37925C15.2506 6.37925 15.7207 5.90908 15.7207 5.32925C15.7207 4.74942 15.2506 4.27925 14.6707 4.27925Z" fill="#EFECE6"/>
</svg>
