<svg width="20" height="20" viewBox="0 0 20 20" fill="none" xmlns="http://www.w3.org/2000/svg">
<path d="M20 3.5946C19.2645 3.9205 18.4744 4.14071 17.6438 4.24024C18.5008 3.72742 19.142 2.9203 19.4477 1.96948C18.6425 2.44775 17.7612 2.78441 16.8422 2.96481C16.2242 2.30495 15.4057 1.86759 14.5137 1.72062C13.6216 1.57365 12.706 1.7253 11.9089 2.15203C11.1119 2.57876 10.4781 3.25668 10.1058 4.08055C9.73358 4.90442 9.64375 5.82815 9.85025 6.70832C8.2187 6.62639 6.62259 6.20232 5.16552 5.46362C3.70847 4.72492 2.42301 3.68811 1.39258 2.42046C1.04025 3.02822 0.837667 3.73289 0.837667 4.48335C0.837275 5.15894 1.00364 5.82417 1.32201 6.42005C1.64038 7.01592 2.10091 7.52399 2.66273 7.89919C2.01117 7.87846 1.37397 7.7024 0.804193 7.38567V7.43852C0.804127 8.38606 1.13189 9.30443 1.73186 10.0378C2.33183 10.7712 3.16707 11.2744 4.09583 11.4621C3.4914 11.6257 2.85769 11.6498 2.24258 11.5326C2.50463 12.3478 3.01506 13.0608 3.70243 13.5716C4.3898 14.0824 5.21969 14.3655 6.07592 14.3812C4.62242 15.5222 2.82735 16.1411 0.979475 16.1384C0.652146 16.1385 0.325092 16.1194 0 16.0812C1.87569 17.2872 4.05914 17.9272 6.28908 17.9248C13.8377 17.9248 17.9644 11.6726 17.9644 6.25028C17.9644 6.07412 17.96 5.89619 17.9521 5.72002C18.7547 5.13954 19.4477 4.42072 19.9982 3.59724L20 3.5946Z" fill="#EFECE6"/>
</svg>
