<svg width="20" height="20" viewBox="0 0 20 20" fill="none" xmlns="http://www.w3.org/2000/svg">
<path d="M19.8 5.96698C19.8 5.96698 19.6 4.56702 19 3.96703C18.2667 3.16705 17.4001 3.16705 17.0001 3.10039C14.2001 2.90039 10.0002 2.90039 10.0002 2.90039C10.0002 2.90039 5.80034 2.90039 3.00041 3.10039C2.60042 3.16705 1.73378 3.16705 1.00046 3.96703C0.400478 4.56702 0.200483 5.96698 0.200483 5.96698C0.200483 5.96698 0.000488281 7.56694 0.000488281 9.23357V10.7669C0.000488281 12.3668 0.200483 14.0334 0.200483 14.0334C0.200483 14.0334 0.400478 15.4334 1.00046 16.0334C1.73378 16.8334 2.73375 16.8334 3.20041 16.9C4.80037 17.0334 10.0002 17.1 10.0002 17.1C10.0002 17.1 14.2001 17.1 17.0001 16.9C17.4001 16.8334 18.2667 16.8334 19 16.0334C19.6 15.4334 19.8 14.0334 19.8 14.0334C19.8 14.0334 20 12.4335 20 10.7669V9.23357C20 7.56694 19.8 5.96698 19.8 5.96698ZM7.93363 12.5668V6.96696L13.3335 9.76689L7.93363 12.5668Z" fill="#EFECE6"/>
</svg>
